<svg xmlns="http://www.w3.org/2000/svg" version="1.1" xmlns:xlink="http://www.w3.org/1999/xlink" xmlns:svgjs="http://svgjs.dev/svgjs" width="1080" height="1920" preserveAspectRatio="none" viewBox="0 0 1080 1920">
    <g mask="url(&quot;#SvgjsMask1023&quot;)" fill="none">
        <rect width="1080" height="1920" x="0" y="0" fill="rgba(6, 8, 35, 1)"></rect>
        <path d="M0,655.612C130.719,647.682,260.936,646.223,379.329,590.247C509.162,528.862,637.706,448.807,705.348,322.122C774.707,192.222,756.039,39.053,752.233,-108.155C747.944,-274.027,779.47,-456.64,681.743,-590.734C582.428,-727.007,406.931,-801.809,238.668,-812.829C82.658,-823.046,-39.647,-689.915,-190.223,-647.84C-343.712,-604.95,-548.005,-685.713,-651.117,-564.196C-754.455,-442.412,-651.627,-254.345,-659.481,-94.819C-666.398,45.686,-739.819,183.993,-694.508,317.171C-647.513,455.297,-541.264,574.223,-410.106,638.137C-284.565,699.314,-139.398,664.068,0,655.612" fill="#05061c"></path>
        <path d="M1080 2596.194C1227.375 2601.54 1376.0059999999999 2647.9120000000003 1513.451 2594.4629999999997 1665.4479999999999 2535.355 1801.196 2428.158 1879.6970000000001 2285.209 1960.941 2137.265 1972.029 1962.198 1952.743 1794.519 1933.069 1623.465 1889.627 1445.845 1769.0230000000001 1322.958 1651.025 1202.726 1475.367 1167.475 1309.341 1138.9360000000001 1157.972 1112.9160000000002 1008.741 1133.446 858.748 1166.4859999999999 698.498 1201.786 528.417 1226.2820000000002 407.78999999999996 1337.527 281.097 1454.366 183.587 1618.5140000000001 181.73000000000002 1790.848 179.93100000000004 1957.831 309.452 2089.902 398.158 2231.387 475.33299999999997 2354.48 538.197 2495.192 666.299 2563.7309999999998 790.7850000000001 2630.335 938.909 2591.076 1080 2596.194" fill="#070a2a"></path>
    </g>
    <defs>
        <mask id="SvgjsMask1023">
            <rect width="1080" height="1920" fill="#ffffff"></rect>
        </mask>
    </defs>
</svg>